<?xml version="1.0" standalone="no"?>
<svg viewBox="0 0 200 200" xmlns="http://www.w3.org/2000/svg">
  <path fill="#0F62FE" d="M42.9,-63.6C57.5,-57.5,72.4,-48.7,80.8,-35.4C89.2,-22.1,91.1,-4.4,86.1,10.5C81,25.4,69,37.3,57.2,47.9C45.4,58.4,34,67.5,20.5,72.9C7,78.3,-8.5,80,-21.9,75.6C-35.3,71.2,-46.7,60.7,-55.5,49C-64.4,37.2,-70.9,24.2,-72.6,10.6C-74.3,-3,-71.4,-17.1,-67.3,-32.7C-63.2,-48.2,-58,-65.1,-46.6,-72.7C-35.2,-80.3,-17.6,-78.5,-1.7,-75.8C14.2,-73.2,28.4,-69.8,42.9,-63.6Z" transform="translate(100 100)" />
</svg>
