<?xml version="1.0" standalone="no"?>
<svg viewBox="0 0 200 200" xmlns="http://www.w3.org/2000/svg">
  <path fill="#FF0066" d="M39.1,-60.8C50.9,-53.3,60.9,-42.8,68.5,-30.1C76.2,-17.4,81.4,-2.5,80.1,12C78.7,26.5,70.8,40.4,60.3,52C49.9,63.6,37,72.7,22.9,75.9C8.8,79.1,-6.4,76.3,-21.7,72.5C-37,68.7,-52.4,63.7,-64.3,53.6C-76.1,43.6,-84.5,28.5,-87.9,12C-91.2,-4.5,-89.5,-22.3,-82.9,-38.2C-76.2,-54.2,-64.5,-68.2,-49.9,-74.5C-35.3,-80.7,-17.6,-79.1,-2,-76C13.6,-72.9,27.3,-68.3,39.1,-60.8Z" transform="translate(100 100)" />
</svg>
